<?xml version="1.0" encoding="utf-8"?>
<!-- Generator: Adobe Illustrator 18.1.0, SVG Export Plug-In . SVG Version: 6.00 Build 0)  -->
<!DOCTYPE svg PUBLIC "-//W3C//DTD SVG 1.1//EN" "http://www.w3.org/Graphics/SVG/1.1/DTD/svg11.dtd">
<svg version="1.1" id="Layer_1" xmlns="http://www.w3.org/2000/svg" xmlns:xlink="http://www.w3.org/1999/xlink" x="0px" y="0px"
	 viewBox="194.5 0 559.8 560" enable-background="new 194.5 0 559.8 560" xml:space="preserve">
<path fill="#45C1B9" d="M474.4,0.1C319.6,0.1,194.5,125.4,194.5,280s125.3,279.9,279.9,279.9S754.3,434.8,754.3,280
	S629.7,0.1,474.4,0.1z M380.6,403.3h-32.1c-15.3,0-38.6-17.3-38.6-38V207.3c0-20.5,22.4-28.9,38.6-28.9h32.1V403.3z M451.1,365.4
	c0,20.5-7.1,38-22.4,38h-41.8V69.5h41.8c15.3,0,22.4,4.5,22.4,25V365.4z M534.8,365.4c0,20.5-10.4,38-25.7,38h-44.9V207.5
	c0-20.5,21.1-28.9,37.3-28.9H535v186.7H534.8z M605.3,480.3h-31.5c-15.3,0-32.8-14.7-32.8-35.4V178.7h40.5
	c15.3,0,23.7,7.8,23.7,28.9L605.3,480.3L605.3,480.3z"/>
</svg>
